<?xml version="1.0" encoding="utf-8"?>
<!-- Generator: Adobe Illustrator 16.0.0, SVG Export Plug-In . SVG Version: 6.00 Build 0)  -->
<!DOCTYPE svg PUBLIC "-//W3C//DTD SVG 1.1//EN" "http://www.w3.org/Graphics/SVG/1.1/DTD/svg11.dtd">
<svg version="1.1" id="Layer_1" xmlns="http://www.w3.org/2000/svg" xmlns:xlink="http://www.w3.org/1999/xlink" x="0px" y="0px"
	 width="792px" height="612px" viewBox="0 0 792 612" enable-background="new 0 0 792 612" xml:space="preserve">
<path fill="#6CB33F" d="M255.913,223.608c0.433,2.166-2.022,1.155-2.6,2.166C252.88,225.197,254.757,223.897,255.913,223.608z"/>
<path fill="#6CB33F" d="M247.969,229.096c0.578-0.578,0.867-1.011,1.3-1.3c0,0.289,0.578-0.578,0.433-0.866
	c0.289-0.145,0.289-0.434,0.578-0.578c0.144,0.144-0.434,0.289,0,0.433c0.578-0.433,0.722-1.444,1.444-2.022
	c0.145-0.145,0.578-0.145,0.867-0.289c0.145-0.144,0.289-0.433,0.433-0.578c0.722-0.722,1.733-1.299,2.167-1.011
	c-0.145,0.578-0.867,0.722-1.011,1.155c0.289,0.145,0.434-0.433,0.578,0.145c0.722-0.433,1.155-0.578,1.444-0.867
	c0.289,0,0.578,0,0.867,0.289c0.578-0.433,0.867-0.433,1.588-0.867c0.145,0.722,0.867-0.144,1.3,0.434c0.289,0,0.434,0,0.722-0.145
	c0.433,0.578,1.011,0,1.3,0.866c-0.289,0.289-0.578,0-0.867,0.434c0-0.145-0.144-0.145-0.144-0.289
	c-0.578,0.289-1.011,0.867-1.589,0.722c0.145,0.867-0.867,1.011-1.3,1.444c-0.145,0.145-0.145,0.433-0.433,0.578
	c-0.433,0.578-1.155,0.867-1.444,1.444c-0.433,0.433-0.722,1.3-1.011,1.877"/>
<g>
	<path fill="#00833E" d="M368.237,340.897c-0.933-0.937-2.403-0.953-3.369-0.054c-6.097,5.653-11.591,9.212-20.16,9.212
		c-12.896,0-22.639-10.581-22.639-24.846c0-13.893,9.743-24.351,22.639-24.351c7.132,0,12.982,2.624,19.626,8.784
		c0.495,0.451,1.152,0.656,1.785,0.641c0.634-0.054,1.251-0.335,1.688-0.845l8.555-9.854c0.854-0.965,0.783-2.448-0.149-3.321
		c-6.469-6.179-15.247-12.5-31.385-12.5c-23.692,0-41.57,17.92-41.57,41.885c0,23.251,18.009,41.458,41.033,41.458
		c13.262,0,22.986-4.229,32.542-14.18c0.904-0.943,0.904-2.453-0.017-3.367L368.237,340.897z"/>
	<path fill="#00833E" d="M422.869,285.614c-23.678,0-42.208,18.307-42.208,41.885c0,23.652,18.045,41.459,41.987,41.459
		c23.681,0,42.216-18.312,42.216-41.9C464.864,303.449,446.802,285.614,422.869,285.614 M422.869,351.903
		c-13.332,0-23.393-10.579-23.393-24.846c0-13.887,9.94-24.351,23.172-24.351c13.329,0,23.406,10.569,23.406,24.792
		C446.055,341.421,436.089,351.903,422.869,351.903"/>
	<path fill="#00833E" d="M507.912,318.879c-15.373-3.677-16.144-6.027-16.144-9.785c0-3.954,4.009-6.621,9.948-6.621
		c6.271,0,12.54,2.399,19.164,7.332c0.511,0.401,1.16,0.562,1.813,0.463c0.642-0.11,1.202-0.47,1.585-0.995l7.162-10.087
		c0.737-1.02,0.536-2.471-0.463-3.272c-8.432-6.796-17.945-10.088-29.044-10.088c-16.425,0-28.344,10.284-28.344,24.649
		c0,15.435,9.941,20.874,27.133,25.031c14.193,3.267,15.276,5.889,15.276,9.462c0,5.261-5.718,7.141-11.035,7.141
		c-8.184,0-14.877-2.771-22.393-9.281c-0.485-0.414-1.097-0.614-1.764-0.607c-0.649,0.069-1.236,0.385-1.659,0.877l-8.02,9.544
		c-0.847,1.001-0.726,2.479,0.238,3.372c9.352,8.324,20.845,12.735,33.282,12.735c17.92,0,29.505-9.849,29.505-25.302
		C534.155,327.479,521.554,322.203,507.912,318.879"/>
	<path fill="#00833E" d="M605.738,301.685v-12.333c0-1.339-1.097-2.449-2.423-2.449h-61.592c-1.324,0-2.409,1.11-2.409,2.449v12.333
		c0,1.35,1.085,2.413,2.409,2.413h21.655v61.146c0,1.348,1.101,2.419,2.407,2.419h13.448c1.336,0,2.417-1.071,2.417-2.419v-61.146
		h21.664C604.642,304.098,605.738,303.035,605.738,301.685"/>
	<path fill="#00833E" d="M648.6,287.828c-0.38-0.881-1.237-1.44-2.203-1.44h-12.362c-0.971,0-1.832,0.559-2.215,1.44l-33.386,76.446
		c-0.342,0.757-0.256,1.617,0.192,2.302c0.44,0.676,1.2,1.084,1.999,1.084h13.666c0.982,0,1.853-0.57,2.212-1.464l7.198-16.846
		h32.678l7.092,16.836c0.384,0.903,1.24,1.474,2.234,1.474h14.087c0.815,0,1.575-0.408,2.037-1.084
		c0.433-0.685,0.512-1.545,0.185-2.302L648.6,287.828z M649.445,332.697h-18.813l9.375-21.875L649.445,332.697z"/>
	<path fill="#00833E" d="M360.857,435.856c10.658-4.172,16.677-12.853,16.677-24.435c0-7.111-2.412-13.361-6.997-18.102
		c-5.55-5.408-13.705-8.271-23.614-8.271h-33.837c-1.327,0-2.413,1.089-2.413,2.41v75.902c0,1.337,1.086,2.405,2.413,2.405h13.342
		c1.324,0,2.404-1.068,2.404-2.405v-24.035h13.031l17.961,25.433c0.443,0.646,1.208,1.008,1.965,1.008h15.724
		c0.914,0,1.741-0.489,2.135-1.309c0.428-0.799,0.352-1.754-0.166-2.481L360.857,435.856z M328.833,402.007h17.005
		c6.081,0,13.319,1.782,13.319,10.383c0,6.346-5.058,10.279-13.19,10.279h-17.134V402.007z"/>
	<path fill="#00833E" d="M406.708,385.054h-13.359c-1.321,0-2.396,1.084-2.396,2.407v75.898c0,1.339,1.075,2.407,2.396,2.407h13.359
		c1.32,0,2.4-1.068,2.4-2.407v-75.898C409.108,386.138,408.028,385.054,406.708,385.054"/>
	<path fill="#00833E" d="M486.718,440.842c-0.911-0.915-2.418-0.962-3.363-0.056c-6.1,5.685-11.596,9.211-20.152,9.211
		c-12.915,0-22.642-10.559-22.642-24.815c0-13.881,9.727-24.367,22.642-24.367c7.115,0,12.977,2.637,19.607,8.782
		c0.476,0.457,1.158,0.696,1.784,0.675c0.642-0.045,1.25-0.356,1.691-0.864l8.568-9.853c0.839-0.978,0.755-2.439-0.172-3.325
		c-6.45-6.173-15.233-12.487-31.384-12.487c-23.671,0-41.534,17.918-41.534,41.884c0,23.236,17.993,41.45,41.014,41.45
		c13.24,0,22.961-4.24,32.523-14.203c0.91-0.941,0.899-2.441-0.019-3.338L486.718,440.842z"/>
	<path fill="#00833E" d="M582.486,462.384l-33.399-76.432c-0.391-0.887-1.245-1.468-2.211-1.468h-12.354
		c-0.97,0-1.828,0.581-2.211,1.468l-33.419,76.432c-0.32,0.746-0.237,1.604,0.189,2.3c0.475,0.673,1.218,1.081,2.035,1.081h13.663
		c0.954,0,1.857-0.564,2.225-1.467l7.186-16.835h32.691l7.061,16.835c0.392,0.902,1.267,1.467,2.25,1.467h14.083
		c0.827,0,1.57-0.408,2.028-1.081C582.756,463.988,582.814,463.13,582.486,462.384 M549.939,430.818h-18.818l9.375-21.872
		L549.939,430.818z"/>
	<path fill-rule="evenodd" clip-rule="evenodd" fill="#63A70A" d="M416.951,247.472c-0.008-0.239-1.394-1.714-1.394-1.702
		c-0.669-0.304-1.006-0.896-0.987-0.919c-0.051,0.065-0.936-0.408-1.443-0.625c-0.702-0.278,0.995-0.096,0.63-0.299
		c-1.971-1.084-3.78-5.448-4.908-11.569c0.148,0.183-0.627-8.462-0.598-9.344c-0.443-4.031,0.199-7.771,0.457-10.811
		c0.54-1.969,0.526-5.587,0.688-6.916c0.319-2.366,0.632-1.955,1.205-6.908c0.175-0.385,0.282-1.255,0.48-1.665
		c0.101-1.406-0.306-1.599-0.514-2.432c0.237-0.457-1.404-1.608-2.027-2.538c-0.539-0.645-6.789-0.838-6.771-0.848
		c-0.389,0.34-1.043-0.087-1.236,0.01c-0.981,0.23-1.525,0.392-1.525,0.392c-0.976,0.505-1.577,0.663-2.545,1.186
		c-0.461,0.468-2.892,2.887-3.324,3.346c-3.583,4.333,1.033-0.206-0.533,1.602c-1.219,1.266-3.289,3.636-5.484,6.159
		c-0.958,1.11-0.753,1.494-1.688,2.572c-0.732,0.836-1.524,2.394-2.198,3.148c-2.247,2.582-5.119,4.58-5.49,4.713
		c-1.45,2.596-1.694,1.807-3.271,4.983c-0.772,0.871-1.371,1.354-2.113,2.239c-0.236,0.809-2.453,2.474-4.264,5.425
		c-0.124,0.26-0.412,0.907-0.645,1.072c-0.151,0.009-0.512,0.46-0.69,0.46c-0.013-0.705-0.007,0.035,0.125-0.732
		c-0.104-2.108,0.808-3.84,0.64-3.88c0-0.375-0.203-1.613-0.179-1.969c1.451-3.323,0.337-3.298,1.252-6.724
		c-0.455,1.015,0.404-2.107,0.433-2.121c0.558-1.596,1.124-3.407,1.25-4.862c0,0,1.187-2.913,1.187-6.614
		c-0.148-1.784-0.975-1.001-0.975-1.001c0.021-0.03,0.021-0.049,0.021-0.077c0.024,0,0.024-0.035,0.024-0.035
		s-0.845-1.689-4.704-0.861c-1.226,0.127-2.73-0.431-4.847,0.512c-0.946,0.349-1.109,0.254-2.306,0.885
		c-0.466,0.36-1.768,1.871-2.223,2.219c-0.251,0.268-0.51,0.545-0.753,0.785c-0.274,0.31-0.553,0.606-0.845,0.914
		c-0.297,0.4-1.029,1.998-1.289,2.357c-0.708,0.844-1.363,1.689-2.026,2.515c-1.496,1.79-1.551,1.598-2.957,3.299
		c-0.544,0.466-1.075,1.724-1.075,1.724c-0.307,0.646-0.603,1.166-0.876,1.677c-1.303,1.42-1.855,2.048-2.96,2.979
		c-0.412,1.566-6.42,5.06-6.606,6.535c0.314-1.153-5.573,5.724-7.507,6.323c0.026,0.021-10.124,7.587-15.628,8.577
		c-6.207,2.423-10.488,0.291-11.923-0.484c-1.021-1.137-1.744-1.073-2.172-1.761c0.146,0.096-0.788-0.898-0.637-0.835
		c-4.379-3.849-2.254-8.139-1.054-10.937c0.079-0.468,0.1-0.791,0.192-0.963c1.039-0.213,2.23-0.734,4.408-1.342
		c0.729-0.187,1.889,0.093,2.769-0.128c0.373-0.115,1.028-0.18,2.123-0.517c1.503-0.446,3.974-1.713,4.428-1.833
		c0.776-0.237,1.187-0.104,1.939-0.311c1.514-0.501,3.145-1.325,3.134-1.325c1.536-0.501,3.073-1.166,4.553-1.869
		c0.848-0.407,0.782-0.673,1.581-1.101c0.93-0.487,2.687-1.092,3.501-1.551c0.416-0.2,1.282-1.029,1.683-1.241
		c0.593-0.372,0.68-0.116,1.288-0.503c0.52-0.333,1.895-0.836,2.42-1.198c1.927-1.39,2.899-2.75,4.646-4.434
		c2.219-2.64,3.95-4.728,5.821-8.147c0.919-1.562,1.881-3.457,2.409-6.467c0.114-1.594,0.469-3.842-2.555-7.029
		c-2.693-2.285-6.575-2.656-8.041-2.349c-11.638,1.85-14.523,4.965-19.667,7.452c-4.498,2.74-8.76,5.912-14.15,11.915
		c-5.27,5.472-10.282,12.16-12.838,19.863c-0.137,3.7-2.424,10.427,0.579,15.452c-0.083,0.673-0.002,1.357,0.144,2.113
		c1.175,1.645,2.869,3.514,4.389,5.211c-0.095,0.024-0.193,0.024-0.277,0.024c2.937,2.138,6.908,3.681,8.691,3.858
		c-0.08,0.053-0.138,0.09-0.212,0.121c1.465,0.466,2.825,0.486,4.221,0.611c-0.243,0.038-0.502,0.106-0.75,0.156
		c6.07,0.071,11.059-1.065,15.128-2.373c0.486-0.259,0.949-0.487,1.424-0.737c9.003-2.379,7.97-5.298,14.59-8.513
		c0.016,0.067,0.856-0.71,0.89-0.676c3.785-4.852,7.426-5.999,11.084-9.629c0.083,0.035,0.174,0.059,0.274,0.084
		c0,0,1.477-0.963,2.601-2.504c0.506-0.799,1.033-1.643,1.58-2.48c0.505-0.623,1.329-1.586,2.235-2.663
		c0.13-0.151,0.563-1.385,0.708-1.523c1.114-2.221,1.9-2.753,2.132-3.025c0.293,1.198,0.211,2.953-0.438,5.065
		c-0.292,2.214,0.328,3.847-0.209,5.71c0.18,0.783-0.495,4.254-0.257,4.993c0.31,0.759-0.33,1.35,0,2.087
		c0.215,0.367,0.791,1.44,0.979,1.803c0.412,0.562,0.549,0.709,0.967,1.116c0.367,0.223,0.459,0.635,0.849,0.876
		c0.453,0.143,0.96,0.838,1.415,1.009c0.579,0.04,1.243,0.635,1.821,0.683c0.011,0.053,1.361,0.263,1.625,0.227
		c0.521-0.038,0.994-0.08,1.499-0.111c0.036,0.147,0.279,0,0.864-0.281c0.159,0,0.321,0,0.472-0.005
		c0.049,0.17,0.448-0.167,1.6-0.608c0.248-0.171,0.843-0.56,1.113-0.732c0.1-0.11,0.991-0.777,1.136-0.912
		c0.082-0.371,0.483-0.288,0.737-0.753c0.213-0.444,0.551-0.523,0.963-1.087c0.21-0.3,0.842-0.726,1.072-1.042
		c0.356-0.308,1.849-2.452,2.198-2.722c0.823-1.379,4.269-3.882,4.675-5.121c0.859-1.094,7.972-10.304,8.907-11.425
		c1.891-1.885,2.844-2.938,3.711-4.447c2.27-2.403,2.138-1.875,3.741-4.011c0.228-0.294,1.091-2.762,1.401-3.177
		c0.299-0.425,0.005,1.224,0.423,0.653c-1.568,5.386-1.308,6.219-1.412,12.392c-0.012,0.107,0.662,3.917,0.085,5.221
		c-0.021,0.117,0.19,3.599,0.206,3.822c-0.035,2.512,0.041,1.65,1.578,7.909c1.227,5.076,2.843,9.706,8.456,14.77
		c1.211,1.123,2.72,2.322,5.713,2.558c1.703,0.117,2.494-0.47,2.692-0.539c0.136-0.051-0.573-0.093-0.433-0.183
		c0.502-0.407,0.568,0,1.063-0.479c0.083-0.107,0.054-0.621,0.155-0.725c0.126-0.157,0.787-0.36,0.885-0.513
		c0.031-0.069-0.249-0.688-0.238-0.737c0.178-0.239,0.104,0.301,0.352,0.205C418.137,248.316,416.962,247.632,416.951,247.472
		 M305.288,211.545c2.782-2.816,8.178-7.622,8.17-7.622c2.485-2.731,2.252-2.573,7.294-4.834c0.518-0.354,1.038-0.685,1.559-1.02
		c0.502-0.201,1.005-0.41,1.515-0.613c-0.196-0.207,0.713-0.207,1.316-0.711c1.051,0.15,0.824-0.579,3.018-1.731
		c1.868-0.44,4.059-2.257,6.107-1.963c0.561,0.188,1.675,1.531,0.191,4.609c-1.216,1.882-2.405,4.006-4.554,5.93
		c-1.184,1.081-2.441,2.278-3.59,3.403c-1.065,1.208-3.615,1.762-5.923,3.113c-1.883,1.078-4.392,1.817-6.294,2.685
		c-2.355,1.083-3.848,1.487-5.029,1.868c-0.807,0.727-3.304,1.271-4.35,1.57C304.754,214.199,302.312,214.766,305.288,211.545"/>
	<path fill-rule="evenodd" clip-rule="evenodd" fill="#63A70A" d="M460.194,239.351c3.085-1.206,15.434-11.373,17.327-13.449
		c0.931-0.681,0.702-0.418,1.543-1.211c0.281-0.178,0.886-1.497,0.886-1.497l2.333-2.46c0.232-0.251-0.352-0.15,0.771-1.158
		l0.095-1.019c0.383-0.339,0.794-0.68,1.205-1.05c-0.172,0.734-0.546,1.729-0.49,2.295c-0.08,0.669-0.17,1.319-0.241,1.967
		c0.161,0.965-0.334,2.637-0.334,2.637c-0.024,0,0.12,5.587,0.869,7.267c0.024,0.696,0.937,2.409,0.891,2.409
		c0.348,0.762,0.731,3.642,0.617,3.547c0.114,0.177,1.473,3.469,2.133,4.181c0.834,1.185,1.372,2.327,2.228,3.569
		c0.776,0.701,1.074,1.144,1.854,1.858c0.498,0.182,1.188,0.618,1.703,0.811c0.666,0.195,2.235-0.47,2.923-0.304
		c0.468-0.325,0.911-0.691,1.4-1.049c0.274-0.466,0.559-0.919,0.848-1.367c0,0-1.4-4.719-1.953-5.308
		c-0.527-0.851-1.062-1.696-1.588-2.538c-0.253-0.694-0.498-1.401-0.742-2.087c-0.254-0.904-0.505-1.754-0.752-2.632
		c-0.255-1.214-0.493-2.415-0.743-3.62c0.105-0.132-0.616-2.347-0.138-4.776c0-0.718,0.012-1.445,0.037-2.146
		c0.021-3.636,0.769-9.915,1.646-13.95c0.41-0.688,0.573-1.569,0.835-2.253c-0.188,0.383-0.338,0.329-0.221,0.013
		c0.641-2.051-0.128-0.08,0.4-2.111c0.253-1.206,0.11-0.91,1.25-3.832c0.344-0.867,1.051-2.52,1.051-2.52
		c0.277-0.271,0.291-0.213,0.479-1.661c-0.312-1.525-5.835-2.231-8.104-0.465c-0.298,0.211-0.587,0.439-0.896,0.656
		c-0.578,0.507-1.158,1.022-1.75,1.511c-0.47,1.044-0.628,1.125-0.798,1.485c-0.225,0.5-0.552,1.027-0.829,1.626
		c-1.3,1.993,0.1,1.54-0.587,2.688c-0.859,1.41-1.697,2.809-2.523,4.203c-0.092,0.163-0.254,0.459-0.423,0.777l-2.728,3.268
		c-0.456,0.374-4.73,4.587-5.55,4.784c0.302-0.066-2.499,2.214-2.877,2.701c-0.92,0.775-2.843,2.423-3.565,2.951l-6.481,4.889
		c-2.39,1.673-2.585,2.162-5.484,3.703l-2.65,1.669c-3.108,2.332-6.93,3.211-9.996,3.391c-1.805-0.156-3.353-0.846-4.367-2.307
		c-0.429-0.545-1.536-2.334-1.617-2.577c-0.69-1.663-0.454,0.119-0.849-1.845c-2.056-1.968,3.72-15.043,6.418-17.227
		c0.799-1.639,2.39-3.229,3.389-4.694l-0.058,0.194c0.953-1.685,8.906-8.909,10.508-9.933l-0.259,0.111
		c1.306-1.269,1.354-0.75,2.561-1.424c-0.349-0.247,0.859-1.266,1.361-1.599l0.01,0.101c0.751-0.494,2.393-1.822,3.715-2.429
		l0.018,0.253c1.004-0.748,2.144-1.559,2.668-1.617c0.223-0.043,0.734-0.162,1.164-0.243c0.033,0.082-0.059,0.243-0.078,0.679
		c1.065-0.07,0.111,0.814-0.06,1.027c-0.804,1.079-0.63,2.825-0.63,2.825s0.579,1.044,1.005,1.621
		c0.533,0.74,1.923,1.334,2.556,0.993c0.549,0.195,1.078,0.222,1.339-0.045c0,0,1.356,0.104,1.728-0.108
		c0.859-0.479,2.253-3.268,2.253-3.268c0.604-1.129,0.169-1.579,0.334-1.411c0,0,0.58-0.238,0.921-1.43
		c0.336-1.816-0.419-0.26-0.215-2.897c0.612-1.766-2.609-5.319-3.81-5.985c-2.049-1.243-3.564-1.168-4.738-1.147
		c-0.518-0.055-0.983-0.021-1.393-0.026c-2.438,0.152-4.131,0.711-5.763,1.249c-3.26,1.192-6.113,2.659-8.92,4.484
		c-0.192,0.027-3.046,2.075-4.456,3.29c-0.442,0.262-0.633,0.254-0.802,0.262c0.169-0.135-7.17,6.879-7.183,7.062l0.177,0.355
		c-1.287,1.411-0.687,0.115-1.825,1.499c-0.058,0.889-2.144,2.463-2.821,3.356c-0.356,0.592-0.514,0.743-0.805,1.229
		c-0.061,0.209,0.174-0.058,0.341-0.132l-0.705,1.065c-0.39,0.338-0.599,0.338-0.304-0.119c-2.426,1.988-10.265,17.037-9.197,22.854
		c-0.234,0.982,0.397,2.384,0.125,3.479l0.341,0.316l-0.066,0.674c1.991,5.256,0.357,1.28,2.479,5.807
		c1.844,2.072,2.988,2.893,4.055,3.668c-0.174-0.117-0.5-0.576,0.058-0.288c-0.076,0.299,1.516,0.777,1.629,1.194
		c0.491,0.337,2.304,1.312,1.842,0.645c0.264,0.307,2.024,1.041,0.886,0.792c0.604,0.248,1.176,0.507,1.671,0.555
		c0,0,2.217,0.58,3.466,0.497c0.509,0.044,0.903,0.143,1.067,0.318c0.909,0.039,1.662-0.008,2.353-0.117
		c0.03,0.023,3.104-0.37,3.104-0.37C453.62,243.618,460.194,239.351,460.194,239.351"/>
	<path fill-rule="evenodd" clip-rule="evenodd" fill="#63A70A" d="M507.643,187.357c-0.082-1.584,0.959-1.961,0.845-3.081
		c-0.084-1.457-2.337-1.419-2.237-3.354c-0.927-0.184-1.108-1.205-1.753-1.666c-0.469-0.312-1.449,0-1.384-0.821
		c-1.266-0.114-1.583-0.357-2.663-0.455c-2.413-0.172-6.202,0.301-7.463,2.383c0.059,0.671-0.262,0.883,0.143,1.173
		c-0.492,0.188-0.65,0.774-0.772,1.377c0.23,0.703,0.732,0.814,0.266,1.866c1.247,0.618,0.526,2.988,2.643,3.178
		c-0.028,0.445-0.307,0.354-0.046,0.688c0.556,0.243,0.924,0.045,1.562-0.042c1.758,2.408,5.952-0.565,8.86,0.475
		C506.435,188.646,506.726,187.653,507.643,187.357"/>
	<path fill-rule="evenodd" clip-rule="evenodd" fill="#63A70A" d="M280.518,189.209c1.047,0.965,5.108-2.222,6.051-2.528
		c2.033-3.235,2.183-2.107,4.188-8.845c0.352-0.922-0.605-2.069-0.396-3.279c-0.854-0.51-0.83-2.054-2.637-1.797
		c-0.353-1.517-2.648,0.211-3.874-0.523c-0.836,0.734-2.208,0.616-2.393,0.894c-1.344,0.764-2.911,1.768-4.142,3.02
		c-0.199,0.222-0.212,0.608-0.45,0.846c-0.106,0.098-0.486-0.068-0.585,0.035c-0.074,0.068-0.206,0.445-0.24,0.494
		c-0.813,0.997-2.191,2.201-3.007,3.113c-0.447,0.473-0.721,0.726-1.087,1.197c-0.562,0.689-0.684,1.134-1.175,1.85
		c-0.486,0.744-1.25,1.498-1.747,2.23c-0.783,1.146-1.539,2.264-2.058,3.062c-0.399,0.582-0.238,0.936-0.539,1.5
		c-0.32,0.594-0.989,1.086-1.358,1.712c-0.12,0.244,0,0.568-0.08,0.825c-0.093,0.251-0.563,0.467-0.65,0.668
		c-1.231,2.637-1.789,5.333-3.137,7.583c0.504,0.072-0.193,1.048-0.38,1.789c-0.217,0.869-0.022,1.409-0.576,1.7
		c0.7,0.482-0.655,1.865-0.114,2.797c-0.042,0.074-0.053,0.141-0.084,0.204c-1.475,1.728-3.232,3.737-4.046,5.248
		c-5.972,4.646-12.139,9.456-18.714,13.451c-3.592,1.701-6.511,3.512-9.857,5.182c-1.854,0.907-3.896,1.853-5.953,2.652
		c-0.455,0.157-0.843,0.302-1.221,0.458c-0.605,0.156-1.124,0.291-1.702,0.442c-0.47,0.127-0.964,0.238-1.536,0.404
		c-7.21,2.009-18.16,5.703-26.425,4.844c-1.042-0.567-2.434-0.837-3.491-1.415c-0.026-0.24-0.222-0.329-0.113-0.674
		c-1.121,0.231-2.096-1.881-2.324-3.133c-0.609-3.61,3.116-9.799,4.652-10.358c2.976,0.134,4.479-1.843,6.91-1.76
		c2.468-1.062,5.021-2.022,7.706-2.789c0.407-0.24,0.542-0.538,1.059-0.357c4.733-1.76,8.742-3.503,12.198-4.614
		c-0.013-0.285,11.239-5.231,12.689-6.144c5.098-1.835,9.481-4.885,13.984-6.826c-0.002-0.101,0.512-0.621,0.529-0.178
		c-1.521,1.606,1.953-0.182,4.44-2.981c1.329-1.499,3.247-3.532,3.41-4.92c0.115-1.043-0.78-1.913,0.085-2.906
		c-0.753-0.352-0.645-1.506-0.981-2.23c-2.28-2.032-4.132-4.542-6.923-5.56c-1.064-0.409-2.833-0.956-4.235-0.932
		c-0.804,0.007-1.623,0.476-2.466,0.482c-11.25,0.115-18.471,3.824-26.545,8.008c-0.38,0.465-0.214,0.655-0.43,1.041
		c-2.103,0.31-4.371,2.098-6.215,3.308c-4.144,2.294-7.574,5.319-11.318,8.052c-4.478,4.475-9.332,8.535-12.764,14.17
		c-0.774,0.543-1.692,0.897-2.556,1.354c0.468-0.094,0.63,0.072,0.476,0.506c-1.522-0.407-6.062,1.318-8.805,1.592
		c-1.13,1.655-4.503,0.618-5.376,1.967c-1.972,0.224-14.29,3.596-15.058,3.713c-1.028,0.285-22.895,5.458-23.556,5.489
		c-1.21,0.847-13.443,2.874-13.425,2.724c-3.014,0.426-9.026,2.147-8.969,1.587c-0.621-0.077-14.231,1.345-20.058,3.308
		c-0.556-0.897-1.493,0.271-2.283,0.296c-0.437-0.698-7.299,0.246-6.485,0.767c-0.827-0.637-0.498,0.852-1.393,0.154
		c0.042-0.262,0.452-0.126,0.399-0.516c-0.891,0.074-1.585,0.407-2.164,0.843c0.078-0.244,0.311-0.3,0.383-0.509
		c-12.516,1.151-28.46,1.344-37.416-5.325c-0.392-0.077-0.373,0.306-0.86,0.158c-0.355-0.134-0.461-0.533-0.987-0.533
		c-1.538,2.452,0.443,3.728,1.07,5.163c-0.544,0.101-0.518-0.334-0.866-0.021c-0.197,1.612,1.899,1.821,1.281,2.917
		c6.854,4.265,15.833,7.065,25.017,6.495c-0.053,0.32-0.021,0.539,0.103,0.699c2.597-0.248,7.386-0.596,7.317-0.379
		c2.098,0.452,5.475,0.113,8.366-0.764c0.262,0.804,4.229-0.854,5.798-0.77c-0.12,0.156-0.455,0.626,0.114,0.519
		c1.677-0.446,6.839-1.039,7.008-0.755c0.52,0.365,6.609-0.174,5.443-0.779c1.209-0.273,1.796-0.062,2.649-0.643
		c-0.482,0.029,5.949-1.484,5.423-0.617c0.77-0.105,1.473-0.251,2.132-0.484c0.257-0.424,11.136-1.581,11.521-1.225
		c-0.472-0.927,2.641-1.057,1.447-0.495c0.975-0.254,7.903-1.135,7.778-1.753c1.25-0.18,8.179-1.151,8.43-1.086
		c0.378-0.215,6.815-2.423,6.772-2.295c3.068-1.104,10.624-2.626,11.315-2.398l4.402-0.625c-0.689,0.01,9.688-3.302,9.563-2.432
		c0.798-0.05,1.346-0.403,1.974-0.673c-0.058-0.416,7.091-2.44,6.918-1.769c0.767-0.035,1.209-0.43,1.948-0.494
		c-0.145,2.179-0.164,5.44,1.084,6.87c-0.019,0.336-0.497,0.212-0.405,0.648c1.488,3.69,3.911,7.507,7.003,10.225
		c5.758,3.656,15.334,2.815,22.499,1.851c6.434-1.464,12.232-3.345,17.845-5.578h0.014c2.584-1.002,5.208-2.42,7.748-3.127
		c3.372-2.37,7.156-4.258,10.967-6.2c3.768-3.271,11.548-8.397,14.84-12.226c0.925-0.485,1.782-1.306,2.665-2.129v0.862
		c0.269,2.038,0.763,4.08,1.202,5.573c-0.174,0.89,0.205,1.593,0.575,1.614c-0.197,0.222-0.314,0.455-0.288,0.843
		c0.911,3.71,2.603,6.815,3.533,10.515c0.195,0.24,0.422,0.428,0.684,0.622c-0.159,0.527,0.281,0.562,0.048,1.151
		c0.542,0.732,1.065,1.655,1.276,2.221c0.159,0.457,0.043,1.017,0.193,1.495c0.51,1.474,1.417,2.849,2.001,4.347
		c0.782,2.146,1.028,4.434,1.294,6.841c0.058,0.668,0.374,1.134,0.361,1.778c-0.029,1.112-0.623,2.204-0.773,3.486
		c-0.058,0.241,0.168,0.559,0.094,0.838c-0.252,0.947-1.228,2.244-1.464,2.851c-0.103,0.241,0.048,0.599-0.097,0.82
		c-0.77,1.319-3.108,3.999-4.167,4.975c-1.224,1.132-2.444,1.9-3.372,3.108c-2.437,1.533-4.532,3.011-7.305,4.123
		c-1.057,0.424-2.462,1.055-3.553,1.351c-1.16,0.271-2.434,0.058-3.641,0.323c-0.46,0.077-0.753,0.358-1.174,0.373
		c-1.086,0.073-2.542-0.769-3.472,0.507c-0.582-0.83-1.859-0.289-2.966-0.534c0.011-0.143,0.043-0.337,0.072-0.462
		c-0.979,0.228-0.917-0.394-1.709-0.28c-0.437,1.345,0.813,1.228,0.7,2.28c0.587-0.008,0.706,0.29,1.073,0.441
		c-0.431,1.232,1.646,0.76,0.941,1.772c1.553,0.117,1.805,0.361,3.191,0.332c-0.081,0.592,0.291,0.864,0.619,1.131
		c0.787-0.182,1.59-0.008,3.012,0.159c-0.598,0.763,0.264,0.139,0.502,0.645c-0.764,0.285-1.89-0.1-2.692,0.47
		c0.301,0.62,2.19,0.822,4.064,0.62c0.449-0.036,0.966-0.399,1.383-0.385c0.667,0,1.005,0.436,1.48,0.419
		c1.669-0.071,2.978-1.225,4.305-1.208c0.233,0.606-0.658,0.133-0.624,0.546c0.59,0.007,0.835-0.344,1.533-0.26
		c0.212-0.56,2.093-1.188,1.806-0.733c0.784,0.13,1.762,0,3.239-0.311c1.699-0.089,3.206-1.532,4.606-2.358
		c0.97-0.556,1.311-0.787,2.075-1.439c0.407-0.309,0.867-0.577,1.25-0.872c2.504-1.927,4.659-3.806,6.526-6.063
		c0.354-1.336,1.126-2.285,1.911-3.221c0.032-0.381,0.066-0.769,0.131-1.152c0.848-0.456,0.537-1.12,0.759-1.654
		c0.118-0.304,0.571-0.483,0.645-0.7c-0.005,0.037-0.19-0.426-0.106-0.654c0.592-1.928,1.745-4.909,1.943-7.16
		c0.211-2.55-0.725-4.969-0.912-7.008c-0.009-0.078,0.274-0.38,0.243-0.504c-0.046-0.276-0.436-0.496-0.465-0.814
		c-0.19-1.88-0.965-3.471-1.549-4.718c-0.568-1.159-0.739-2.095-1.173-3.055c-0.301-0.696-0.351-1.498-0.674-2.263
		c-0.292-0.667-0.942-1.253-1.122-1.906c-0.051-0.204,0.126-0.465,0.074-0.659c-0.497-1.292-1.38-2.423-1.851-3.686
		c-0.335-0.967-0.544-1.967-0.84-2.614c-1.128-2.324-1.517-4.827-1.852-7.128c-0.818-1.614-1.179-3.749-1.398-5.856
		c-0.241-1.91-0.214-4.036-0.082-6.082c0.156-2.201,0.417-4.861,0.994-7.106c1.354-5.134,3.913-9.579,5.914-13.617
		c0.278-0.536,0.919-0.828,1.145-1.845c0.026-0.602,0.763-1.986,1.205-2.444C280.917,187.061,279.131,189.989,280.518,189.209
		 M199.699,210.141c2.714-3.018,12.243-9.632,12.497-9.558l1.343-1.54c0.579-0.23,3.44-1.071,4.292-1.486
		c3-1.442,6.001-3.321,9.365-3.8c1.514-1.001,3.25-1.757,4.819-1.412c2.299-1.479,5.278-0.506,8.119,0.064
		c-7.25,6.144-16.126,10.222-24.524,14.458c-1.231,0.463-9.915,4.043-13.41,4.857C199.669,212.29,197.991,211.439,199.699,210.141"
		/>
	<path fill="#63A70A" d="M730.271,242.247c0.041,0.281,0.094,0.582,0.152,0.86c-0.491-0.338-0.699,0.203-1.275,0.244
		c0.052-0.455,0.649-0.521,0.4-1.144c-0.264-0.215-0.891,0.092-0.986-0.365c0.747-0.505,0.402-0.235,1.285-0.235
		c0.042-0.289,0.518-0.262,0.26-0.788c-0.746-0.337-1.948,1.097-2.909,0.387c0.36-0.104,0.303-0.523,0.456-0.783
		c-1.152-0.192-2.407,0.57-3.157,1.137c-0.735-0.455-1.782,0.047-2.524,0.664c0.571-0.206,0.475,0.448,1.126,0.126
		c0.132-0.324,0.536-0.475,0.812-0.677c0.159,0.45,0.817,0.165,1.021,0.521c-0.843,0.288-1.834,0.661-3.042,0.74
		c0.037-0.235,0.18-0.314-0.103-0.505c-0.931,0.303-1.212,0.243-2.187,0.217c0.228-0.061,0.526-0.044,0.526-0.239
		c-0.808,0.006-0.784,0.239-0.835,0.506c-1.432-0.14-2.431,0.658-3.345,1.366c-0.098-0.357,0.223-0.401,0.292-0.586
		c-0.914,0.107-2.061,0.538-2.8,1.235c-0.246-0.241-0.737-0.072-0.782-0.562c-5.111,1.809-11.306,1.89-15.787,3.721
		c-1.421-0.367-3.446,0-4.896,0.579c-3.561-0.371-6.612,0.822-9.659,1.123c-0.547,0.047-1.295,0.129-1.724-0.384
		c-1.592,0.586-3.131-0.062-4.903,0.564c-3.577-0.261-7.235,0.022-10.705,0.099c-2.202,0-4.278-0.438-6.355-0.617
		c-1.805-0.146-3.498-0.031-5.034-0.281c-0.524-0.086-1.018-0.514-1.558-0.591c-0.321-0.056-0.954,0.186-1.283,0.054
		c-1.779-0.675-4.393-0.956-6.439-1.27c-1.411-0.915-3.731-0.689-4.881-1.948c-2.31-0.382-4.379-1.117-6.047-2.454
		c-4.045-1.615-7.64-3.784-10.829-6.503c-0.438,0.096-0.58-0.192-0.924-0.192c-0.284-0.864-0.912-1.255-1.843-1.277
		c0.441-0.581-0.423-0.449-0.321-1.182c-1.743-0.474-2.279-2.478-3.758-3.245c-1.497-2.563-4.506-4.962-5.902-8.377
		c-0.446,0.12-0.597-0.15-0.795-0.355c-1.441-3.563-3.917-5.759-4.815-10.036c-0.224-0.044-0.438-0.105-0.586-0.271
		c0.148-1.385-1.422-2.793-1.301-4.226c-0.023-0.277-0.479,0-0.551-0.232c0.021-1.918-1.136-2.051-0.95-4.315
		c0.777,0.183,0.368-1.131,0.535-1.538c0.372,0.09,0.202,0.515,0.585,0.09c0.252-0.648,0.18-1.279,1.058-1.831
		c-0.403-0.859,1.399-1.578,1.084-2.896c1.46-0.473,0.462-2.658,2.205-2.925c0-0.349-0.257-0.349-0.257-0.665
		c0.232-0.271,0.412-0.307,0.704-0.128c0.218-1.708,2.185-2.225,1.341-3.85c1.971-0.792,0.77-3.607,2.671-3.758
		c0.311-0.893,0.148-2.104,0.933-2.652c0.03-0.587-0.403-0.568-0.314-1.201c0.111-0.351,0.294-0.645,0.616-0.845
		c-0.302-1.881,2.699-5.068,2.435-7.056c0.38-0.7,1.421-3.303,1.531-3.559c1.348-2.37,1.227-4.048,1.528-4.767
		c-0.14-0.038,0.714-0.746,0.725-0.999c0.047-0.716,0.45-1.052,0.475-1.779l0.516-1.264l0.214-1.437l1.108-4.286
		c-0.102,0.01-0.169,0.01-0.199-0.106c0.05-0.429,0.291-1.047,0.466-1.663l0.016-0.28l-0.165-0.127l0.498-3.21
		c0.189-3.092,1.062-3.835,0.904-7.376c-0.097-0.761,0.151-2.747,0.119-3.457c0.032-1.025-0.453-4.577-0.358-5.596
		c0-1.893-0.434-2.58-0.476-2.937c-0.406-2.475-0.373-0.674-1.347-3.036c-0.136-0.461-0.162-1.031-0.375-1.556
		c0-0.52-0.76-0.573-0.857-0.92c0.156-0.755-0.422-0.867-0.758-1.649c-0.598-1.337-0.954-2.151-1.807-2.531
		c-0.044-0.278-1.621-2.12-1.664-2.419c-1.495-1.012-1.495-0.605-3.033-1.582c-0.029-0.162-0.051-0.336-0.071-0.521
		c-2.48-0.462-4.36-1.374-7.297-0.722c-0.142,0.471-0.43,0.867-0.99,1.055c-0.33,0.061-0.262-0.428-0.752-0.201
		c-1.603,0.356-2.301,1.378-3.833,1.802c-2.423,2.772-3.599,6.427-5.383,9.635c0.418,0.089-0.383,0.705-0.028,1.272
		c-1.202,1.087-0.848,3.232-1.813,4.472c0.029,0.245,0.132,0.359,0.248,0.478c-0.843,1.938-1.307,4.165-1.579,6.242
		c-0.378,2.338-1.065,4.871-1.12,7.194c-0.062,2.373-0.613,4.064-0.675,6.217c-0.043,1.391,0.062,2.093-0.307,3.103
		c0.502,0.65-0.089,1.345-0.116,2.011c-0.248,3.908-0.174,7.97-0.293,12.042c-0.019,0.209-0.181,0.323-0.304,0.45
		c0.264,2.375,0.377,4.82,0.061,7.681c0.745,0.944,0.269,2.458,0.288,3.539c-0.02,1.357,0.431,2.531,0.5,3.839
		c-0.02,0.081-0.3,0.312-0.286,0.596c-0.068,3.958,1.151,8.421,1.506,13.159c-1.326,1.785-1.355,4.188-3.4,5.471
		c-0.548,1.665-2.047,2.556-2.967,3.979c-1.367,0.714-1.588,3.052-3.079,3.772v-0.024c-0.027,0.024-0.045,0.044-0.08,0.069
		c-0.065,0.02-0.121,0.069-0.174,0.083l0.013,0.033c-1.833,1.446-7.181,7.523-8.199,6.703c-0.684,0.245-2.867,2.048-4.901-1.703
		c-0.317,0-3.021-6.17-3.425-7.598c-0.296-3.472-0.798-6.526-0.922-10.104c-0.096-0.938-0.35-1.725-0.668-2.281
		c0.764-2.423,0.572-2.6,1.172-6.53c0,0,0.378-1.023,0.235-1.765l0.197-1.424c0,0,0.117-3.104,0.081-3.104l-1.72-0.422
		c0,0-2.007-0.053-3.091,0.132c-1.222,0.124-0.629,0.053-1.598,0.171l-2.72,0.132c0,0-0.68,0.478-2.479,0.574l-1.735,1.942
		l-3.15,0.463l-6.097,2.383l-9.308,5.964l-4.858,3.168c-1.482,2.108-4.238,3.603-4.238,3.603l-3.61,3.391
		c1.185-0.983-3.225,4.417-5.784,6.822c-1.237,2.946-7.825,14.82-6.438,15.34c-1.749,7.76-2.49,8.25,4.987,15.624
		c5.14,5.084,13.602,1.061,16.672,0.058c1.021-0.655,1.868-1.342,2.706-2.03c7.238-2.933,8.771-4.756,14.949-12.016l-0.035,0.676
		l1.492-3.596c3.648-3.76,2.934-6.275,6.758-10.62c0.137-0.201,0.263-0.41,0.385-0.594c0.009,0.035,0.046,0.085,0.046,0.158
		c0.611,1.432,1.843,4.445,2.119,6.067c1.061,3.003,6.071,8.66,7.378,9.686c3.461,2.45,7.904,0.976,9.339,0.364
		c3.362-1.238,8.557-8.417,9.268-8.692l-0.111-0.513c0.337-0.338,0.674-0.738,0.946-1.302c2.305-1.837,4.354-6.019,4.875-5.941
		c0.816-0.671,1.132-1.377,2.201-1.525c-0.313-0.525,0.892-1.977,1.576-2.085c0.058,0,0.752,0.88,1.148,0.333
		c1.076,1.578,1.713,3.746,2.429,5.798c3.197,4.905,5.75,10.687,9.65,14.655c1.093,2.63,2.567,2.493,3.626,4.885
		c1.05-0.143,1.007,1.225,1.818,1.451c0.362,1.425,2.497,1.936,3.561,3.084c-0.254,0.396,0.038,0.231,0.08,0.673
		c0.601-0.178,0.402,0.744,1.156,0.337c0.025,0.215-0.212,0.275-0.104,0.561c0.47,0.101,1.027,0.13,1.355,0.447
		c3.57,3.605,8.172,5.829,13.007,7.734c-0.151,0.069-0.36,0.075-0.354,0.27c2.674,1.136,5.214,2.381,8.021,3.306
		c0.141-0.671-1.085-0.467-0.644-0.771c0.668,0.172,1.397,0.256,1.773,0.915c0.364-0.636,0.145,0.176,0.38,0.098
		c3.483-0.098,6.565,2.064,10.602,1.934c0.215,0.601,1.739,0.267,1.266,1.189c0.854-0.64,2.572,0.513,3.039-0.761
		c0.817,0.685,1.227,0.232,2.382-0.101c0.126,0.785,0.953,0.645,1.419,0.965c-0.08-0.371,0.626-0.18,0.869-0.32
		c1.464,0.6,3.785-0.071,4.741,0.713c-0.937,0.005-1.644,0.1-2.33,0.613c0.791,0.244,2.095-0.176,2.784,0.183
		c0.44-0.419-0.507-0.83,0.206-1.119c0.234,0.858,0.323-0.185,0.737-0.136c0.257,0.235,0.583,0.335,0.652,0.773
		c-0.414,0.087-0.843,0.166-1.243,0.25c0.924,0.66,2.741,0.186,4.089,0.293c0.14-0.394-0.604-0.507-0.103-0.71
		c1.259,0.167,2.314,0.025,3.102-0.416c0.712,0.391,1.624-0.074,2.097,0.515c1.017-0.754,2.771-0.192,4.22-0.28
		c-0.243-0.539,0.543-0.359,0.632-0.659c0.673,0.65,2.65,0.337,3.536,0.059c1.772,0.101,4.321,0.101,6.015-0.624
		c-0.077-0.667,0.135-0.539-0.141-1.048c-0.6,0.179-0.228,0.596-0.719,0.134c-0.229,0.166,0.062,0.666-0.257,0.753
		c-0.702,0.214-1.785,0.161-2.761,0.19c-0.016-0.24,0.192-0.302,0.109-0.56c-1.621,0.727-2.393,0.105-3.915,1.075
		c0.641-1.341-0.856-0.219-1.08-1.211c0.296-0.068,0.554-0.068,0.741,0.051c-0.254-0.938-1.151-0.463-1.27,0.231
		c0.203-0.042,0.463,0.01,0.203,0.135c-0.562,0.169-0.847-0.331-0.782-0.959c0.579-0.229,1.461-0.122,2.444-0.437
		c-0.201-0.816,0.682-0.924,0.719-1.558c0.285,0.939,1.594,0.393,2.272,0.285c-0.056,1.074-1.858,0.417-2.108,0.941
		c0.467-0.096,0.365,0.606,0.825,0.541c-0.03-0.273,1.196-0.509,1.252-0.225c-0.249,0.362-1.043,0.337-0.99,0.912
		c0.673-0.145,1.103-1.009,1.647-0.33c0.133-0.407,0.061-0.994,0.556-1.185c0.929,0.024,2.885,0.349,3.614-0.7
		c-0.206,0.7,0.61,0,0.598,0.45c-0.461,0.489-0.65,1.102-0.964,0.891c-0.111,0.674,0.72,0.116,1.099,0.147
		c-0.271-1.113,0.47-1.575,0.933-1.418c0.163,0.063-0.068,0.531,0.248,0.486c0.051,0-0.175-0.835,0.094-0.73
		c0.162,0.676,1.162,0.358,1.655,0.018c0.062,0.261,0.014,0.673,0.278,0.673c0-0.124,0-0.19,0.163-0.211
		c0.085-0.01,0.111-0.01,0.146-0.035c0.062,0,0.062,0,0,0c0.593-0.139-0.573-0.167,0-0.324c0.672,0.446,1.945-0.284,2.878-0.579
		c-0.01-0.258-0.159-0.604,0.071-0.732c0.661-0.044,1.107-0.13,1.286-0.044c-0.092,0.409-1.1,0.172-0.808,0.863
		c0.047,0.022,0.071,0.022,0.106,0.026c0.781-0.609,1.918-1.213,2.758-0.88c-0.104,0.198-0.396,0.225-0.319,0.608
		c0.265-0.073,0.513-0.1,0.771-0.126c-0.022-0.031-0.047-0.031-0.047-0.075c-0.049-0.484-0.362-0.283-0.101-0.718
		c3.136,0.435,6.55-0.878,10.487-1.8c0-0.232-0.086-0.501,0.159-0.564c0.115-0.186,0.486-0.186,0.46-0.47
		c0.387,0.081,0.145,0.491-0.19,0.602c0.24,0.31,0.744,0.266,1.369,0.073c0.023-0.452,0.246-0.781,0.56-0.879
		c0.312-0.249,0.77-0.398,0.671-0.946c0.243-0.024,0.384,0.116,0.509,0.272c0.028,0,0.054-0.045,0.101-0.045
		c0.242,0.229,0.566,0.346,0.646,0.772c-0.174,0.033-0.196,0.187-0.344,0.268c-0.374,0.167-0.374-0.181-0.577-0.268
		c-0.072,0.068-0.175,0.151-0.265,0.232c0.468,0.602,0.493,1.247,0.511,1.703c0.247-0.334,0.753-0.437,1.23-0.591
		c0-0.372-0.299-0.326-0.43-0.476c1.872-0.729,3.892-1.818,5.602-2.318c0,0.185,0.026,0.345,0.045,0.523
		c1.229-0.01,1.564-0.612,1.886-1.231c0.477,0.812,1.443-0.203,2.072,0.289c0.188-0.378,0.166-0.922,0.781-1.036
		c0.029,0.185-0.229,0.322,0.048,0.34c0.748-0.721,0.859,0,2.146-0.406c-0.232-0.643,0.633-0.854,0.053-1.253
		c-1.07,0.146,0.243,0.938-0.78,1.045c-0.324-0.416-0.761-0.52-1.329-0.106c0.088-0.589-0.341-0.513-0.634-0.601
		c-0.259,0.371,0.364,0.658-0.438,0.807c-0.232-0.232-0.061-0.569-0.211-0.958c-0.151,0.151-0.286,0.239-0.452,0.339
		c-0.618,0.674-1.329,0.62-2.225,1.189c0-0.384-0.12-0.57-0.352-0.597c-0.079,0.038-0.129,0.085-0.199,0.159
		c0,0.185,0.354,0.297-0.189,0.383c-0.05-0.074-0.05-0.144-0.077-0.198c-0.219,0.154-0.406,0.18-0.528,0
		c-0.215,0.247-0.385,0.448-0.463,0.58c0.078-0.131,0.395,0.478-0.135,0.367c-0.071-0.235-0.271-0.251-0.609-0.586
		c0.023-0.026,0.048-0.042,0.076-0.069c-0.053-0.044-0.053-0.121-0.053-0.249c-0.381,0.282,0.468,0.743-0.455,0.822
		c0.05-0.332-0.07-0.478-0.336-0.461c0,0.03,0.03,0.045,0.03,0.103c0.256,0.441-0.945,0.694-0.846,0.514
		c-0.162-0.361-0.026-0.571,0-0.738c-0.274,0.01-0.417,0.122-0.887,0.037c0.016-0.047,0.072-0.12,0.168-0.158
		c-0.304,0.039-0.304-0.117-0.588-0.499c-0.208,0.969-1.326,0.819-2.278,0.788c0.16,0.416-0.68,0.897-0.868,0.536
		c0.789-0.325,0.619-0.289,0.262-0.786c0.626-0.891,2.559-0.462,2.617-1.213c0.552-0.325,0.226,0.55,0.775,0.238
		c0.502-0.563,1.747-0.959,2.479-0.847c0.215-0.517,1.539-0.287,1.689-1.217c0.57-0.021,0.57-0.455,1.232-0.434
		c-0.12,0.345-0.538,0.654,0.094,0.714c0.243-0.423,0.288-0.957,0.959-1.073c0.384,0.246-0.166,0.568,0.466,0.611
		c0.406-0.471,0.299-0.535,0.428-0.95c0.364,0.479,0.655-0.121,0.964,0.339c-0.021-0.56,0.217-0.917,0.79-1.041
		c0.452,0.6-0.237,0.32-0.05,1.067c1.33-0.232,2.292-1.938,3.332-1.352c0.167-0.382-0.169-0.787,0.625-1.014
		c0.475-0.065,0.475,0.592,0.817,0.748c0.526-0.573,1.229-0.116,1.78-0.521C730.926,243.056,730.831,242.121,730.271,242.247
		 M549.161,206.455c-1.566,3.39-1.323,7.111-4.175,8.329l-0.162,1.536c-0.466,2.658-2.678,3.908-4.225,5.713l0.49,0.655
		c-0.526,1.49-2.515,3.843-3.85,4.4c-2.747,2.151-5.684,5.742-9.629,8.311c-4.214,0.04-2.967,1.908-8.221,1.453
		c-3.369-1.453-3.597-7.06-1.546-8.49c2.735-6.485,3.971-9.805,5.922-11.677c3.769-5.586,12.087-10.046,14.464-13.144
		c3.178-3.159,8.23-4.842,11.806-6.308L549.161,206.455z M598.417,187.077c-1.098-9.153-0.25-16.149-0.633-24.611
		c0.245-0.079,0.229-0.282,0.534-0.298c-0.546-5.734,0.773-10.578,1.033-16.157c1.585-1.437-0.468-6.36,1.693-6.805
		c-0.193-1.127,1.191-3.01,0.349-3.081c0.492-2.494,1.256-4.772,2.66-6.63c-0.047-0.277-0.089-0.573-0.131-0.867
		c1.081-1.447,3.709-3.29,5.673-4.096c0.547,0.145-0.64,2.363,0.36,1.958c0.93,0.928,1.168,2.728,2.28,3.459l0.301,1.723
		c0.931,0.925,0.13,3.988,1.135,4.342c-0.06-0.267-0.233,2.453-0.109,2.31c-0.356,5.04,0.665,3.689-0.114,8.332
		c0.085,0.549,0.63,0.421,0.114,3.012c-0.135,0.006-0.356,1.304-0.487,1.336c-0.16-0.284,0.175,1.103-0.377,1.067
		c-0.367,0.563,0.087,1.337-0.256,2.177c0.095,0.185,0.328,0.074,0.522,0.103c-0.04,0.178-0.073,0.371-0.118,0.574
		c-0.241,0.213-0.482,0.292-0.613,0.634c0.081,0.314,0.304-0.148,0.372,0.127c-0.369,0.588-0.532,1.072-0.345,1.878
		c-0.027,0.201-0.077,0.362-0.136,0.586c-0.33,0.338-0.709,0.23-1.128,0.696c-0.077,0.419,0.306,1.418-0.727,1.574
		c0.499,0.5,0.051,1.361,0.42,1.699c-0.468,0.048-0.778,0.243-0.653,0.661c0.381,0.51-0.837,2.268-1.67,2.849
		c0.647,0.399,0.071,1.905,0.981,1.943c-0.381,0.296-0.743,0.707-1.056,0.216c-0.807,1.527-1.54,3.1-2.172,4.717
		c0.526-0.27,0.39,0.315,0.449,0.626c-0.499,0.247-0.833,0.605-1.164,0.959c0.237,0.825-0.454,1.586-0.633,2.257
		c-0.1,0.317-0.809,2.169-1.189,2.196c-0.417,1.534-1.348,2.703-2.069,3.998c-0.639-0.029-0.649,0.843-0.733,1.388
		C599.115,184.376,599.765,186.427,598.417,187.077 M676.48,258.575c-0.038-0.263,0.286-0.263,0.569-0.263
		c-0.051,0.087-0.071,0.185-0.051,0.33C676.816,258.7,676.593,258.655,676.48,258.575 M677.05,258.642
		c0.066-0.145,0.149-0.226,0.265-0.3C677.261,258.476,677.182,258.593,677.05,258.642 M677.687,257.681
		c0.224-0.554,0.739-1.1,1.615-1.253c-0.111,0.045-0.229-0.077-0.026-0.156c0.254,0.124,0.709,0.048,0.797,0.394
		C679.438,256.639,678.968,257.44,677.687,257.681 M687.564,255.671c0.661-0.324,0.475,0.444,0.933,0.389
		C688.392,256.451,687.501,256.188,687.564,255.671 M691.233,256.294c0-0.432,0.432-0.498,0.699-0.302
		C691.894,256.242,691.5,256.219,691.233,256.294 M692.136,256.14c-0.141-0.373,0.209-0.387,0.497-0.437
		C692.562,255.909,692.437,256.091,692.136,256.14 M693.555,254.235c-0.248-0.567,0.521-0.371,0.849-0.494
		C694.408,254.134,693.999,254.173,693.555,254.235 M695.77,254.755c0.029-0.425,0.458-0.5,0.711-0.321
		C696.459,254.696,696.055,254.655,695.77,254.755 M696.753,253.505c0.269-0.297,1.001-0.737,1.389-0.452
		C697.704,253.545,697.19,253.528,696.753,253.505 M698.389,253.94c-0.098-0.459,1.472-0.929,1.442-0.268
		C699.313,253.545,698.872,253.621,698.389,253.94 M700.743,252.217c0.559-0.094,1.167-0.309,1.127,0.341
		C701.353,252.664,700.795,252.751,700.743,252.217 M702.964,254.39c-0.82-0.578-1.116,0.301-1.973,0.154
		c0.416-0.969,1.53-0.557,2.384-1.335c0.023,0.337,0.267,0.337,0.239,0.686C703.329,254.002,702.726,253.864,702.964,254.39
		 M705.011,251.281c-0.601,0.225-0.689-0.202-0.79-0.572c0.219,0.097,0.509,0.122,0.887,0
		C705.039,250.881,704.964,251.035,705.011,251.281 M705.17,253.238c0.055-0.158,0.174-0.206,0.174-0.372
		c0.123-0.042,0.222-0.051,0.337-0.071C705.809,253.162,705.478,253.179,705.17,253.238 M706.751,250.783
		c-0.128,0.023-0.248,0.048-0.358,0.066c-0.029-0.695-0.248,0.111-0.562-0.249c-0.021-0.431,0.75-0.224,1.041-0.375
		C706.938,250.496,706.751,250.545,706.751,250.783 M708.945,252.768c-0.225-0.031-0.319-0.282-0.553-0.259
		c0.024-0.277,0.398-0.232,0.659-0.31C708.982,252.354,708.921,252.524,708.945,252.768 M709.21,251.819
		c-0.444,0.031-0.133-0.619-0.072-0.74c0.212,0.023,0.159,0.351,0.387,0.299C709.524,251.565,709.186,251.56,709.21,251.819
		 M709.486,251.031c-0.023-0.622,1.131-1.003,1.399-0.43C710.801,251.005,709.859,251.267,709.486,251.031 M713.925,250.066
		c0,0.104,0.025,0.217,0.025,0.343c-0.13,0.03-0.248,0.046-0.359,0.059c-0.035-0.132-0.035-0.243-0.035-0.344
		C713.678,250.101,713.775,250.066,713.925,250.066 M711.925,250.027c0.03,0.255,0.044,0.494,0.044,0.755
		C711.426,250.903,711.199,250.053,711.925,250.027"/>
	<path fill="#63A70A" d="M753.029,244.692c-1.999-0.011-3.896-0.41-5.636-1.174c-1.727-0.765-3.247-1.823-4.524-3.123
		c-1.266-1.318-2.277-2.853-3.003-4.587c-0.724-1.72-1.072-3.582-1.068-5.554c0.029-2.024,0.415-3.888,1.173-5.624
		c0.75-1.717,1.803-3.228,3.096-4.516c1.311-1.308,2.862-2.338,4.617-3.095c1.712-0.726,3.582-1.091,5.55-1.091
		c2.137,0.003,4.021,0.398,5.768,1.186c1.736,0.749,3.25,1.803,4.517,3.11c1.268,1.303,2.285,2.838,3,4.58
		c0.735,1.724,1.087,3.606,1.071,5.555c-0.009,2.028-0.408,3.879-1.163,5.603c-0.737,1.728-1.781,3.255-3.104,4.555
		c-1.292,1.284-2.862,2.336-4.616,3.076c-1.727,0.734-3.589,1.1-5.547,1.1H753.029z M753.208,217.674
		c-1.746,0-3.374,0.327-4.875,0.984c-1.527,0.655-2.878,1.556-4.01,2.674c-1.136,1.139-2.039,2.474-2.691,3.987
		c-0.633,1.499-0.968,3.143-0.978,4.875c-0.027,1.812,0.287,3.457,0.908,4.966c0.598,1.521,1.467,2.867,2.584,4.023
		c1.117,1.133,2.445,2.051,3.944,2.709c1.493,0.68,3.165,1.034,4.949,1.034c1.87,0,3.506-0.326,4.99-0.963
		c1.549-0.644,2.908-1.563,4.039-2.687c1.138-1.133,2.048-2.475,2.683-3.985c0.646-1.517,0.98-3.147,0.99-4.873
		c0.015-1.818-0.283-3.463-0.898-4.985c-0.624-1.514-1.491-2.857-2.596-4.005c-1.125-1.134-2.444-2.05-3.956-2.713
		c-1.505-0.675-3.166-1.034-4.949-1.042l-0.135-0.158V217.674z M757.66,237.391l-4.296-5.604l-3.448,0.037l-0.053,5.485l-2.47-0.01
		l0.123-14.903l6.692,0.061c0.924,0.005,1.786,0.152,2.554,0.438c0.767,0.292,1.391,0.683,1.875,1.178
		c0.38,0.369,0.665,0.78,0.882,1.275c0.211,0.488,0.318,1.023,0.303,1.681c-0.004,1.305-0.377,2.284-1.128,3.008
		c-0.689,0.669-1.546,1.14-2.561,1.414l4.521,5.964L757.66,237.391z M753.957,229.608c1.014,0,1.794-0.202,2.401-0.615
		c0.608-0.428,0.906-1.007,0.914-1.797c0.009-0.782-0.262-1.36-0.814-1.776c-0.552-0.441-1.342-0.68-2.343-0.692l-4.136-0.024
		l-0.033,4.877L753.957,229.608z"/>
	<path fill="#63A70A" d="M753.233,216.071h0.128c1.992,0.04,3.847,0.427,5.578,1.176c1.718,0.763,3.215,1.786,4.456,3.088
		c1.273,1.303,2.265,2.791,2.982,4.518c0.717,1.726,1.067,3.555,1.053,5.508v0.066c-0.014,1.948-0.408,3.769-1.16,5.479
		c-0.742,1.718-1.771,3.21-3.063,4.494c-1.292,1.284-2.826,2.298-4.566,3.043c-1.715,0.731-3.534,1.102-5.482,1.102h-0.13
		c-1.99-0.027-3.845-0.42-5.562-1.176c-1.726-0.767-3.213-1.785-4.49-3.089c-1.25-1.293-2.251-2.807-2.952-4.522
		c-0.717-1.719-1.077-3.544-1.063-5.483v-0.079c0.021-1.943,0.4-3.776,1.151-5.489c0.759-1.705,1.784-3.201,3.071-4.479
		c1.297-1.29,2.801-2.311,4.558-3.058C749.455,216.448,751.284,216.071,753.233,216.071 M753.179,243.088
		c1.75,0,3.392-0.299,4.915-0.971c1.575-0.667,2.938-1.58,4.09-2.735c1.141-1.146,2.064-2.478,2.71-4.016
		c0.66-1.549,1.007-3.184,1.009-4.947v-0.074c0.017-1.756-0.286-3.411-0.915-4.951c-0.625-1.552-1.506-2.911-2.631-4.081
		c-1.114-1.135-2.451-2.066-4-2.734c-1.534-0.696-3.203-1.047-5.012-1.056c-0.044,0-0.099-0.004-0.137-0.004
		c-1.775,0-3.416,0.338-4.926,0.979c-1.549,0.662-2.909,1.576-4.069,2.734c-1.165,1.146-2.066,2.483-2.721,4.021
		c-0.652,1.552-0.987,3.202-1.013,4.943v0.079c-0.014,1.749,0.302,3.403,0.935,4.954c0.612,1.564,1.499,2.917,2.617,4.065
		c1.126,1.141,2.456,2.08,4,2.749c1.533,0.691,3.208,1.046,5.005,1.046H753.179 M747.684,222.55l6.513,0.061
		c0.93,0.008,1.752,0.162,2.502,0.428c0.738,0.28,1.344,0.669,1.816,1.149c0.358,0.34,0.658,0.752,0.857,1.21
		c0.207,0.491,0.297,1.021,0.297,1.63v0.071c-0.011,1.18-0.367,2.121-1.078,2.833c-0.716,0.699-1.624,1.173-2.738,1.421l4.489,5.905
		l-2.682-0.036l-4.158-5.532h-0.082l-3.658-0.031l-0.047,5.492l-2.154-0.012L747.684,222.55 M754.03,229.764
		c0.983,0,1.789-0.228,2.415-0.629c0.649-0.452,0.984-1.093,0.984-1.937v-0.061c0.007-0.769-0.284-1.387-0.873-1.847
		c-0.584-0.473-1.393-0.703-2.442-0.713l-4.281-0.031l-0.061,5.179l4.165,0.04H754.03 M753.233,215.753
		c-1.98,0-3.87,0.392-5.612,1.11c-1.783,0.774-3.35,1.817-4.66,3.133c-1.318,1.308-2.369,2.839-3.15,4.59
		c-0.755,1.747-1.144,3.626-1.162,5.592c-0.02,2.062,0.35,3.954,1.072,5.701c0.728,1.744,1.757,3.306,3.038,4.627
		c1.296,1.329,2.817,2.373,4.572,3.157c1.768,0.783,3.676,1.166,5.697,1.203h0.13c1.974,0,3.862-0.394,5.604-1.122
		c1.788-0.765,3.354-1.813,4.672-3.127c1.316-1.289,2.382-2.845,3.146-4.589c0.748-1.74,1.151-3.607,1.17-5.6
		c0.019-2.044-0.35-3.925-1.073-5.697c-0.737-1.742-1.77-3.303-3.042-4.611c-1.278-1.312-2.827-2.383-4.573-3.176
		c-1.749-0.762-3.67-1.16-5.7-1.189H753.233z M753.179,242.789h-0.139c-1.756-0.019-3.406-0.37-4.88-1.026
		c-1.488-0.662-2.801-1.571-3.895-2.695c-1.11-1.141-1.958-2.468-2.559-3.964c-0.615-1.497-0.922-3.131-0.908-4.83
		c0.021-1.78,0.354-3.401,0.991-4.887c0.637-1.503,1.519-2.827,2.655-3.937c1.107-1.115,2.428-1.993,3.965-2.659
		c1.451-0.646,3.088-0.962,4.798-0.962h0.137c1.752,0.028,3.396,0.362,4.884,1.032c1.492,0.66,2.803,1.571,3.901,2.682
		c1.103,1.147,1.955,2.468,2.562,3.97c0.607,1.493,0.905,3.103,0.903,4.833c-0.027,1.785-0.346,3.397-0.988,4.883
		c-0.626,1.493-1.526,2.821-2.65,3.933c-1.12,1.119-2.46,2.001-3.984,2.654C756.512,242.465,754.893,242.789,753.179,242.789
		 M747.371,222.229l-0.011,0.321l-0.118,14.59l-0.007,0.311h0.314l2.165,0.021h0.312l0.005-0.319l0.049-5.179l3.258,0.035
		l4.069,5.417l0.082,0.132h0.171l2.682,0.021h0.646l-0.404-0.523l-4.187-5.521c0.963-0.276,1.753-0.755,2.413-1.388
		c0.77-0.742,1.171-1.766,1.183-3.046c0-0.732-0.104-1.301-0.323-1.815c-0.216-0.511-0.53-0.952-0.936-1.324
		c-0.486-0.513-1.123-0.908-1.911-1.223c-0.789-0.284-1.669-0.436-2.615-0.44l-6.523-0.069H747.371z M750.103,229.41l0.044-4.557
		l3.968,0.041c0.962,0.017,1.714,0.221,2.244,0.653c0.512,0.381,0.766,0.909,0.766,1.59c-0.013,0.799-0.292,1.324-0.858,1.719
		c-0.571,0.4-1.337,0.597-2.235,0.597v0.311l-0.093-0.311L750.103,229.41z"/>
	<g>
		<path fill="#63A70A" d="M327.044,511.143v-13.114l-7.722,11.517l-7.756-11.517v13.114h-3.861v-25.83l11.617,17.309l11.616-17.309
			v25.83H327.044z"/>
		<path fill="#63A70A" d="M335.163,511.143v-24.698h3.861v24.698H335.163z"/>
		<path fill="#63A70A" d="M355.398,496.498h9.021v3.496h-9.021v7.654h10.951v3.494h-10.985h-3.828v-24.698h3.828h10.985v3.463
			h-10.951V496.498z"/>
		<path fill="#63A70A" d="M383.521,511.143H373.17h-3.829v-24.698h3.861v21.204h10.319V511.143z"/>
		<path fill="#63A70A" d="M389.011,496.498h9.021v3.496h-9.021v7.654h10.952v3.494h-10.984h-3.829v-24.698h3.829h10.984v3.463
			h-10.952V496.498z"/>
		<path fill="#63A70A" d="M420.297,509.112c-0.633,0.399-1.298,0.767-1.997,1.064c-1.53,0.634-3.16,0.966-4.826,0.966
			c-1.664,0-3.295-0.332-4.793-0.966c-1.497-0.632-2.796-1.53-3.928-2.662c-1.132-1.131-2.03-2.429-2.663-3.929
			c-0.632-1.496-0.965-3.128-0.965-4.791c0-1.665,0.333-3.295,0.965-4.826c0.633-1.467,1.531-2.797,2.663-3.929
			s2.431-2.031,3.928-2.63c1.498-0.665,3.129-0.966,4.793-0.966c1.666,0,3.296,0.301,4.826,0.966
			c0.167,0.066,0.366,0.166,0.533,0.233v4.561c-1.499-1.232-3.361-1.898-5.359-1.898c-2.264,0-4.393,0.866-5.991,2.497
			c-1.598,1.598-2.496,3.727-2.496,5.992c0,2.264,0.898,4.393,2.496,5.991c1.599,1.598,3.728,2.495,5.991,2.495
			c2.263,0,4.394-0.897,5.992-2.495c0.3-0.301,0.565-0.6,0.831-0.932V509.112z"/>
		<path fill="#63A70A" d="M440.966,509.112c-0.634,0.399-1.298,0.767-1.998,1.064c-1.531,0.634-3.161,0.966-4.826,0.966
			c-1.664,0-3.297-0.332-4.793-0.966c-1.499-0.632-2.797-1.53-3.928-2.662c-1.132-1.131-2.031-2.429-2.663-3.929
			c-0.634-1.496-0.966-3.128-0.966-4.791c0-1.665,0.332-3.295,0.966-4.826c0.632-1.467,1.531-2.797,2.663-3.929
			c1.131-1.132,2.429-2.031,3.928-2.63c1.496-0.665,3.129-0.966,4.793-0.966c1.665,0,3.295,0.301,4.826,0.966
			c0.166,0.066,0.365,0.166,0.532,0.233v4.561c-1.497-1.232-3.361-1.898-5.358-1.898c-2.263,0-4.395,0.866-5.992,2.497
			c-1.598,1.598-2.496,3.727-2.496,5.992c0,2.264,0.898,4.393,2.496,5.991c1.598,1.598,3.729,2.495,5.992,2.495
			s4.393-0.897,5.99-2.495c0.3-0.301,0.566-0.6,0.834-0.932V509.112z"/>
		<path fill="#63A70A" d="M444.157,511.143v-24.698h3.861v24.698H444.157z"/>
		<path fill="#63A70A" d="M458.635,510.177c-1.498-0.632-2.796-1.53-3.928-2.662c-1.132-1.131-2.031-2.429-2.663-3.929
			c-0.632-1.496-0.965-3.128-0.965-4.791c0-1.665,0.333-3.295,0.965-4.826c0.632-1.467,1.531-2.765,2.663-3.929
			c1.132-1.132,2.43-1.998,3.928-2.63c1.498-0.633,3.13-0.966,4.794-0.966c1.663,0,3.295,0.333,4.826,0.966
			c1.464,0.632,2.763,1.498,3.928,2.63c1.132,1.164,1.996,2.462,2.629,3.929c0.633,1.531,0.966,3.161,0.966,4.826
			c0,1.663-0.333,3.295-0.966,4.791c-0.633,1.5-1.497,2.798-2.629,3.929c-1.165,1.132-2.464,2.03-3.928,2.662
			c-1.531,0.634-3.163,0.966-4.826,0.966C461.765,511.143,460.133,510.811,458.635,510.177z M457.437,492.803
			c-1.598,1.598-2.496,3.727-2.496,5.992c0,2.264,0.898,4.393,2.496,5.991c1.598,1.598,3.729,2.495,5.992,2.495
			c2.263,0,4.393-0.897,5.991-2.495c1.598-1.599,2.495-3.728,2.495-5.991c0-2.266-0.897-4.395-2.495-5.992
			c-1.599-1.599-3.729-2.497-5.991-2.497C461.165,490.306,459.034,491.204,457.437,492.803z M464.692,479.887h3.463l-3.463,3.896
			h-2.33L464.692,479.887z"/>
		<path fill="#63A70A" d="M482.73,495.267v15.876h-3.861V485.28l15.512,17.009v-15.845h3.895v25.829L482.73,495.267z"/>
		<path fill="#63A70A" d="M506.395,509.679l-1.764,5.027h-1.332l0.798-3.563c-1.23-0.067-2.196-1.064-2.196-2.33
			c0-1.263,1.032-2.295,2.33-2.295c1.266,0,2.33,1.032,2.33,2.295C506.561,509.146,506.494,509.413,506.395,509.679z"/>
		<path fill="#63A70A" d="M522.336,495.267v15.876h-3.861V485.28l15.511,17.009v-15.845h3.895v25.829L522.336,495.267z"/>
		<path fill="#63A70A" d="M554.952,505.85h-8.787l-2.098,5.293h-4.26l10.75-25.83l10.72,25.83h-4.228L554.952,505.85z
			 M553.555,502.389l-2.997-7.522l-2.995,7.522H553.555z"/>
		<path fill="#63A70A" d="M576.386,489.907h-6.791v21.235h-3.894v-21.235h-6.791v-3.463h17.476V489.907z"/>
		<path fill="#63A70A" d="M581.276,509.18c-0.965-0.732-1.697-1.63-2.197-2.662c-0.565-1.133-0.832-2.397-0.832-3.762v-16.312h3.861
			v16.312c0,1.464,0.533,2.595,1.531,3.361c0.932,0.732,2.296,1.164,3.762,1.164c1.43,0,2.796-0.432,3.761-1.164
			c0.999-0.767,1.498-1.897,1.498-3.361v-16.312h3.894v16.312c0,1.364-0.299,2.629-0.831,3.762c-0.533,1.032-1.265,1.93-2.196,2.662
			c-1.633,1.267-3.796,1.963-6.125,1.963C585.071,511.143,582.907,510.446,581.276,509.18z"/>
		<path fill="#63A70A" d="M617.854,511.143h-4.359l-6.225-8.355h-2.829v8.355h-3.861v-24.698h3.263h4.061
			c3.262,0,5.159,1.333,6.158,2.464c1.298,1.43,1.997,3.428,1.997,5.726c0,2.263-0.699,4.261-1.997,5.691
			c-0.6,0.666-1.531,1.43-2.862,1.897L617.854,511.143z M607.902,499.326c1.598,0,2.796-0.467,3.561-1.33
			c0.934-1,1.099-2.397,1.099-3.362c0-1-0.165-2.396-1.099-3.396c-0.765-0.865-1.963-1.3-3.561-1.3h-3.462v9.388H607.902z"/>
		<path fill="#63A70A" d="M634.395,505.85h-8.787l-2.098,5.293h-4.261L630,485.312l10.719,25.83h-4.227L634.395,505.85z
			 M632.997,502.389L630,494.866l-2.995,7.522H632.997z"/>
		<path fill="#63A70A" d="M656.826,511.143h-10.352h-3.827v-24.698h3.861v21.204h10.317V511.143z"/>
		<path fill="#63A70A" d="M677.793,511.143v-13.114l-7.722,11.517l-7.755-11.517v13.114h-3.861v-25.83l11.616,17.309l11.618-17.309
			v25.83H677.793z"/>
		<path fill="#63A70A" d="M689.773,496.498h9.021v3.496h-9.021v7.654h10.951v3.494h-10.983h-3.828v-24.698h3.828h10.983v3.463
			h-10.951V496.498z"/>
		<path fill="#63A70A" d="M707.578,495.267v15.876h-3.861V485.28l15.512,17.009v-15.845h3.895v25.829L707.578,495.267z"/>
		<path fill="#63A70A" d="M742.593,489.907h-6.791v21.235h-3.894v-21.235h-6.791v-3.463h17.476V489.907z"/>
		<path fill="#63A70A" d="M748.414,496.498h9.021v3.496h-9.021v7.654h10.951v3.494h-10.983h-3.828v-24.698h3.828h10.983v3.463
			h-10.951V496.498z"/>
		<path fill="#63A70A" d="M764.723,511.143c-1.299,0-2.33-1.032-2.33-2.33c0-1.263,1.031-2.33,2.33-2.33
			c1.264,0,2.33,1.067,2.33,2.33C767.053,510.11,765.986,511.143,764.723,511.143z"/>
	</g>
</g>
</svg>
